<?xml version="1.0" standalone="no"?><!DOCTYPE svg PUBLIC "-//W3C//DTD SVG 1.1//EN" "http://www.w3.org/Graphics/SVG/1.1/DTD/svg11.dtd"><svg t="1539238853267" class="icon" style="" viewBox="0 0 1024 1024" version="1.1" xmlns="http://www.w3.org/2000/svg" p-id="1951" xmlns:xlink="http://www.w3.org/1999/xlink" width="200" height="200"><defs><style type="text/css"></style></defs><path d="M554.012672 863.232c-8.192-8.192-25.088-8.192-33.28-8.192-16.896 0-25.088 0-33.28 8.192L253.980672 988.16c-41.472 25.088-66.56 0-58.368-41.472l41.472-258.56c0-25.088-8.192-50.176-25.088-66.56l-192-183.296c-33.28-33.28-25.088-66.56 25.088-66.56l258.56-41.472c25.088 0 50.176-25.088 58.368-41.472l116.736-233.472c8.192-16.896 25.088-33.28 33.28-33.28s25.088 8.192 33.28 33.28l116.736 233.472c8.192 16.896 33.28 41.472 58.368 41.472l258.56 41.472c50.176 8.192 58.368 41.472 25.088 66.56l-192 183.296c-16.896 16.896-25.088 50.176-25.088 66.56l41.472 258.56c8.192 41.472-16.896 66.56-58.368 41.472l-216.064-124.928z" fill="#CCCCCC" p-id="1952"></path><path d="M520.732672 854.528c-16.896 0-25.088 0-33.28 8.192L253.980672 988.16c-41.472 25.088-66.56 0-58.368-41.472l41.472-258.56c0-25.088-8.192-50.176-25.088-66.56l-192-183.296c-33.28-33.28-25.088-66.56 25.088-66.56l258.56-41.472c25.088 0 50.176-25.088 58.368-41.472l116.736-233.472c8.192-16.896 25.088-33.28 33.28-33.28" fill="#FF9E00" p-id="1953"></path></svg>